<svg width="512" height="512" viewBox="0 0 512 512" fill="none" xmlns="http://www.w3.org/2000/svg">
<path d="M90 412.067V97.7962C90 94.5382 93.6864 92.6468 96.3329 94.5469L222.333 185.013C223.379 185.764 224 186.974 224 188.262V318.887C224 320.155 223.398 321.349 222.378 322.103L96.3784 415.283C93.7381 417.236 90 415.351 90 412.067Z" stroke="black" stroke-width="16"/>
<path d="M420 97.6333L420 412.236C420 415.488 416.326 417.381 413.678 415.493L282.678 322.1C281.625 321.349 281 320.136 281 318.843V188.306C281 186.993 281.644 185.764 282.723 185.017L413.723 94.3443C416.376 92.5081 420 94.4069 420 97.6333Z" stroke="black" stroke-width="16"/>
</svg>
