<?xml version="1.0" standalone="no"?>
<!DOCTYPE svg PUBLIC "-//W3C//DTD SVG 20010904//EN"
 "http://www.w3.org/TR/2001/REC-SVG-20010904/DTD/svg10.dtd">
<svg version="1.0" xmlns="http://www.w3.org/2000/svg"
 width="700.000000pt" height="700.000000pt" viewBox="0 0 700.000000 700.000000"
 preserveAspectRatio="xMidYMid meet">
<metadata>
Created by potrace 1.14, written by Peter Selinger 2001-2017
</metadata>
<g transform="translate(0.000000,700.000000) scale(0.100000,-0.100000)"
fill="#000000" stroke="none">
<path d="M1232 5816 c-45 -16 -86 -57 -100 -102 -8 -28 -11 -582 -9 -2219 l2
-2181 25 -37 c60 -89 189 -95 273 -13 6 6 34 27 62 46 27 19 55 40 61 45 6 6
40 31 75 56 80 58 970 715 984 726 6 5 37 29 70 53 215 157 443 330 457 346 9
10 21 31 27 46 7 19 11 339 12 952 1 844 0 927 -16 959 -21 45 -23 47 -191
166 -76 55 -143 103 -149 108 -5 4 -138 100 -295 212 -157 113 -475 341 -707
507 -232 167 -436 310 -453 319 -41 21 -88 26 -128 11z m335 -423 c120 -86
265 -190 323 -232 58 -41 107 -79 108 -83 2 -4 8 -8 12 -8 5 0 75 -48 157
-107 221 -160 642 -462 692 -497 24 -17 56 -40 69 -52 l25 -21 0 -862 c0 -501
-4 -865 -9 -870 -5 -5 -97 -73 -204 -151 -175 -128 -317 -234 -360 -267 -8 -7
-107 -80 -220 -163 -113 -82 -266 -195 -340 -250 -315 -233 -475 -350 -477
-350 -2 0 -3 916 -3 2035 0 1119 2 2035 5 2035 2 0 102 -70 222 -157z"/>
<path d="M5645 5823 c-21 -5 -141 -82 -255 -164 -36 -25 -220 -153 -410 -284
-190 -132 -385 -267 -435 -301 -49 -35 -121 -84 -160 -111 -269 -185 -565
-392 -589 -410 -15 -12 -36 -39 -46 -58 -18 -35 -19 -83 -19 -960 l0 -924 23
-42 c20 -39 94 -99 296 -239 8 -6 105 -75 215 -154 110 -78 376 -267 590 -420
215 -152 399 -284 410 -292 197 -145 360 -253 389 -258 80 -15 162 31 185 103
8 24 11 662 11 2215 l0 2181 -23 40 c-36 63 -110 94 -182 78z m-12 -2235 c-1
-1080 -2 -1997 -2 -2039 l-1 -77 -567 405 c-313 222 -600 428 -640 456 -39 29
-162 116 -272 195 l-201 143 0 862 0 863 833 576 c457 318 837 577 842 578 7
0 9 -659 8 -1962z"/>
</g>
</svg>
